M48
;Layer_Color=9474304
;FILE_FORMAT=2:4
INCH,TZ
;TYPE=PLATED
T1F00S00C0.0118
T2F00S00C0.0280
T3F00S00C0.0315
T4F00S00C0.0402
T5F00S00C0.0421
T6F00S00C0.0433
T7F00S00C0.0591
T8F00S00C0.1142
;TYPE=NON_PLATED
T9F00S00C0.1181
T10F00S00C0.1201
%
T01
X11700Y-23200
X12100
X21500Y-18900
X24500
X28100
X27200Y-21100
X26700Y-16700
X26800Y-13100
X26500Y-10700
Y-10100
Y-9500
Y-8900
Y-8300
Y-7700
Y-7100
X22100Y-11200
X21788Y-13488
X21700Y-14000
X22600Y-13700
X22977Y-13441
X16500Y-12900
X15300Y-12600
X14500Y-13300
X13300Y-13500
Y-12900
X12200Y-12700
X11600
X11000
X10400
X9800
X9200Y-12400
X9440Y-9858
X10500Y-10100
X11600Y-10300
X11500Y-8800
X12400
X12000Y-12300
X12114Y-14359
X13700Y-14600
X13500Y-16600
X13000Y-17000
X13600Y-17400
X15300Y-17100
X11700Y-16800
X11200Y-19600
X9400Y-20700
X8500Y-20100
X7100Y-17600
X5900
X7500Y-16600
X7791Y-15396
X6700Y-11700
X8500Y-10300
X17000Y-10400
X18500Y-19000
X14000Y-20900
X5300Y-20800
X3400Y-15500
X3300Y-13000
X300Y-13900
X-300
Y-9300
X400
X-2400Y-19400
X-3700
X21200Y-5700
X21700
X22500
X23000
X27700Y-5800
X28800
T02
X-4200Y-22200
Y-21700
Y-21200
Y-20700
Y-20200
X-3700
Y-20700
Y-21200
Y-21700
Y-22200
T03
X-1900Y-17087
Y-16300
Y-15513
Y-12587
Y-11800
Y-11013
Y-8100
Y-7313
Y-6525
T04
X28800Y-10900
Y-9900
Y-8900
Y-7900
Y-6900
X29800
Y-7900
Y-8900
Y-9900
Y-10900
T05
X-3500Y-16381
Y-15200
Y-12381
Y-11200
Y-8400
Y-7219
T06
X6901Y-22332
X7901
X8901
X9901
X10901
X11901
X12901
T07
X-1900Y-17914
Y-14686
Y-13414
Y-10186
Y-8927
Y-5698
T08
X22100Y-8250
X700Y-20600
T09
X16200Y-22351
Y-6800
X3602
Y-22351
T10
X-5201Y-15791
Y-11791
Y-7809
M30
