G04*
G04 #@! TF.GenerationSoftware,Altium Limited,Altium Designer,21.9.1 (22)*
G04*
G04 Layer_Color=65535*
%FSLAX25Y25*%
%MOIN*%
G70*
G04*
G04 #@! TF.SameCoordinates,DC2D0AE7-CD98-4BDC-8897-A2E9BC7E3A80*
G04*
G04*
G04 #@! TF.FilePolarity,Positive*
G04*
G01*
G75*
%ADD10C,0.00984*%
%ADD11C,0.00787*%
%ADD12C,0.01000*%
%ADD13C,0.00394*%
%ADD14C,0.00500*%
D10*
X187634Y-136260D02*
X186896Y-135834D01*
Y-136686D01*
X187634Y-136260D01*
X132768Y-155402D02*
X132029Y-154975D01*
Y-155828D01*
X132768Y-155402D01*
X197500Y-154000D02*
X196762Y-153574D01*
Y-154426D01*
X197500Y-154000D01*
X237634Y-136260D02*
X236896Y-135834D01*
Y-136686D01*
X237634Y-136260D01*
X187634Y-97260D02*
X186896Y-96834D01*
Y-97686D01*
X187634Y-97260D01*
X237634D02*
X236896Y-96834D01*
Y-97686D01*
X237634Y-97260D01*
X240500Y-154000D02*
X239762Y-153574D01*
Y-154426D01*
X240500Y-154000D01*
X-2508Y-72992D02*
X-3246Y-72566D01*
Y-73418D01*
X-2508Y-72992D01*
Y-118992D02*
X-3246Y-118566D01*
Y-119418D01*
X-2508Y-118992D01*
Y-163992D02*
X-3246Y-163566D01*
Y-164418D01*
X-2508Y-163992D01*
X301350Y-190740D02*
X300612Y-190314D01*
Y-191166D01*
X301350Y-190740D01*
X265350D02*
X264612Y-190314D01*
Y-191166D01*
X265350Y-190740D01*
X235350D02*
X234612Y-190314D01*
Y-191166D01*
X235350Y-190740D01*
X205350D02*
X204612Y-190314D01*
Y-191166D01*
X205350Y-190740D01*
D11*
X-8370Y-171268D02*
Y-170480D01*
Y-171268D01*
X-34488Y-99748D02*
X-35276D01*
X-34488D01*
Y-139559D02*
X-35276D01*
X-34488D01*
Y-179559D02*
X-35276D01*
X-34488D01*
X-41606Y-197098D02*
X-42394D01*
X-41606D01*
X-8370Y-126268D02*
Y-125480D01*
Y-126268D01*
Y-81394D02*
Y-80606D01*
Y-81394D01*
X191177Y-126811D02*
X200823D01*
X207811Y-126122D02*
Y-103878D01*
X191177Y-103189D02*
X200823D01*
X184189Y-126122D02*
Y-103878D01*
X121260Y-172854D02*
X128740D01*
X121260Y-167146D02*
X128740D01*
X121941Y-160716D02*
X125189D01*
X85031D02*
X88279D01*
X85031Y-123807D02*
Y-120559D01*
Y-160716D02*
Y-157468D01*
X121941Y-120559D02*
X125189D01*
X85031D02*
X88279D01*
X125189Y-123807D02*
Y-120559D01*
Y-160716D02*
Y-157468D01*
X132146Y-164740D02*
Y-157260D01*
X137854Y-164740D02*
Y-157260D01*
X136260Y-130146D02*
X143740D01*
X136260Y-135854D02*
X143740D01*
X102146Y-107591D02*
Y-106409D01*
X107854Y-107591D02*
Y-106409D01*
X82146Y-111740D02*
Y-104260D01*
X87854Y-111740D02*
Y-104260D01*
X293409Y-55146D02*
X294590D01*
X293409Y-60854D02*
X294590D01*
X77854Y-164740D02*
Y-157260D01*
X72146Y-164740D02*
Y-157260D01*
X283000Y-114748D02*
Y-63252D01*
Y-114748D02*
X303000D01*
Y-63252D01*
X283000D02*
X303000D01*
X205098Y-166905D02*
Y-155095D01*
X204902Y-166905D02*
Y-155095D01*
X205098D01*
X204902Y-166905D02*
X205098D01*
X191295Y-189740D02*
Y-182260D01*
X185587Y-189740D02*
Y-182260D01*
X234189Y-126122D02*
Y-103878D01*
X241177Y-103189D02*
X250823D01*
X257811Y-126122D02*
Y-103878D01*
X241177Y-126811D02*
X250823D01*
X184189Y-87122D02*
Y-64878D01*
X191177Y-64189D02*
X200823D01*
X207811Y-87122D02*
Y-64878D01*
X191177Y-87811D02*
X200823D01*
X234189Y-87122D02*
Y-64878D01*
X241177Y-64189D02*
X250823D01*
X257811Y-87122D02*
Y-64878D01*
X241177Y-87811D02*
X250823D01*
X-56882Y-224342D02*
X-47000D01*
X-56882Y-199657D02*
X-47000D01*
X-56882Y-224342D02*
Y-199657D01*
X-47000Y-224342D02*
Y-199657D01*
X211260Y-127146D02*
X218740D01*
X211260Y-132854D02*
X218740D01*
X223260Y-127146D02*
X230740D01*
X223260Y-132854D02*
X230740D01*
X248098Y-166905D02*
Y-155095D01*
X247902Y-166905D02*
Y-155095D01*
X248098D01*
X247902Y-166905D02*
X248098D01*
X287979Y-189740D02*
Y-182260D01*
X282271Y-189740D02*
Y-182260D01*
X-1905Y-64902D02*
X9905D01*
X-1905Y-65098D02*
X9905D01*
X-1905D02*
Y-64902D01*
X9905Y-65098D02*
Y-64902D01*
X-1905Y-110902D02*
X9905D01*
X-1905Y-111098D02*
X9905D01*
X-1905D02*
Y-110902D01*
X9905Y-111098D02*
Y-110902D01*
X-1905Y-155902D02*
X9905D01*
X-1905Y-156098D02*
X9905D01*
X-1905D02*
Y-155902D01*
X9905Y-156098D02*
Y-155902D01*
X303811Y-223122D02*
Y-200878D01*
X287177Y-223811D02*
X296823D01*
X280189Y-223122D02*
Y-200878D01*
X287177Y-200189D02*
X296823D01*
X251854Y-189740D02*
Y-182260D01*
X246146Y-189740D02*
Y-182260D01*
X267811Y-223122D02*
Y-200878D01*
X251177Y-223811D02*
X260823D01*
X244189Y-223122D02*
Y-200878D01*
X251177Y-200189D02*
X260823D01*
X221177D02*
X230823D01*
X214189Y-223122D02*
Y-200878D01*
X221177Y-223811D02*
X230823D01*
X237811Y-223122D02*
Y-200878D01*
X216271Y-189740D02*
Y-182260D01*
X221979Y-189740D02*
Y-182260D01*
X118854Y-111740D02*
Y-104260D01*
X113146Y-111740D02*
Y-104260D01*
X191177Y-200189D02*
X200823D01*
X184189Y-223122D02*
Y-200878D01*
X191177Y-223811D02*
X200823D01*
X207811Y-223122D02*
Y-200878D01*
D12*
X174000Y-177000D02*
X260000D01*
X174000Y-137000D02*
X260000D01*
Y-177000D02*
Y-137000D01*
X174000Y-177000D02*
Y-137000D01*
X-72000Y-180000D02*
X24000D01*
X-72000Y-56000D02*
X24000D01*
Y-180000D02*
Y-56000D01*
X-72000Y-180000D02*
Y-56000D01*
X174000Y-135000D02*
X260000D01*
X174000Y-56000D02*
X260000D01*
Y-135000D02*
Y-56000D01*
X174000Y-135000D02*
Y-56000D01*
X279000Y-149000D02*
X293000D01*
X279000Y-115000D02*
X293000D01*
Y-149000D02*
Y-115000D01*
X279000Y-149000D02*
Y-115000D01*
X26000Y-233000D02*
X172000D01*
X26000Y-56000D02*
X172000D01*
Y-233000D02*
Y-56000D01*
X26000Y-233000D02*
Y-56000D01*
X293000Y-149000D02*
X307000D01*
X293000Y-115000D02*
X307000D01*
Y-149000D02*
Y-115000D01*
X293000Y-149000D02*
Y-115000D01*
X174000Y-233000D02*
X309000D01*
X174000Y-179000D02*
X309000D01*
Y-233000D02*
Y-179000D01*
X174000Y-233000D02*
Y-179000D01*
X274000Y-233000D02*
Y-179000D01*
Y-233000D02*
Y-179000D01*
X281000Y-142001D02*
Y-145000D01*
X282500D01*
X282999Y-144500D01*
Y-142501D01*
X282500Y-142001D01*
X281000D01*
X283999D02*
X284999D01*
X284499D01*
Y-145000D01*
X283999D01*
X284999D01*
X287998Y-142001D02*
X286998D01*
X286498Y-142501D01*
Y-144500D01*
X286998Y-145000D01*
X287998D01*
X288498Y-144500D01*
Y-142501D01*
X287998Y-142001D01*
X290997Y-145000D02*
Y-142001D01*
X289497Y-143500D01*
X291497D01*
X296999Y-142501D02*
X296499Y-142001D01*
X295500D01*
X295000Y-142501D01*
Y-144500D01*
X295500Y-145000D01*
X296499D01*
X296999Y-144500D01*
Y-143500D01*
X296000D01*
X297999Y-145000D02*
Y-142001D01*
X299998Y-145000D01*
Y-142001D01*
X300998D02*
Y-145000D01*
X302498D01*
X302997Y-144500D01*
Y-142501D01*
X302498Y-142001D01*
X300998D01*
X281000Y-130001D02*
X282999D01*
X282000D01*
Y-133000D01*
X283999Y-130001D02*
X285998Y-133000D01*
Y-130001D02*
X283999Y-133000D01*
X281000Y-127000D02*
Y-124001D01*
X282500D01*
X282999Y-124501D01*
Y-125501D01*
X282500Y-126000D01*
X281000D01*
X282000D02*
X282999Y-127000D01*
X283999Y-124001D02*
X285998Y-127000D01*
Y-124001D02*
X283999Y-127000D01*
X281000Y-121000D02*
Y-118001D01*
X282500D01*
X282999Y-118501D01*
Y-119501D01*
X282500Y-120000D01*
X281000D01*
X282000D02*
X282999Y-121000D01*
X285998Y-118501D02*
X285498Y-118001D01*
X284499D01*
X283999Y-118501D01*
Y-119001D01*
X284499Y-119501D01*
X285498D01*
X285998Y-120000D01*
Y-120500D01*
X285498Y-121000D01*
X284499D01*
X283999Y-120500D01*
X286998Y-118001D02*
X288997D01*
X287998D01*
Y-121000D01*
X281000Y-136001D02*
Y-139000D01*
X282500D01*
X282999Y-138500D01*
Y-136501D01*
X282500Y-136001D01*
X281000D01*
X283999D02*
X284999D01*
X284499D01*
Y-139000D01*
X283999D01*
X284999D01*
X287998Y-136001D02*
X286998D01*
X286498Y-136501D01*
Y-138500D01*
X286998Y-139000D01*
X287998D01*
X288498Y-138500D01*
Y-136501D01*
X287998Y-136001D01*
X289497Y-139000D02*
X290497D01*
X289997D01*
Y-136001D01*
X289497Y-136501D01*
X295000Y-139000D02*
Y-136001D01*
X296999Y-139000D01*
Y-136001D01*
X299998Y-136501D02*
X299499Y-136001D01*
X298499D01*
X297999Y-136501D01*
Y-138500D01*
X298499Y-139000D01*
X299499D01*
X299998Y-138500D01*
X295000Y-118501D02*
X295500Y-118001D01*
X296499D01*
X296999Y-118501D01*
Y-119001D01*
X296499Y-119501D01*
X296000D01*
X296499D01*
X296999Y-120000D01*
Y-120500D01*
X296499Y-121000D01*
X295500D01*
X295000Y-120500D01*
X297999Y-118001D02*
Y-120000D01*
X298999Y-121000D01*
X299998Y-120000D01*
Y-118001D01*
X300998Y-118501D02*
X301498Y-118001D01*
X302498D01*
X302997Y-118501D01*
Y-119001D01*
X302498Y-119501D01*
X301998D01*
X302498D01*
X302997Y-120000D01*
Y-120500D01*
X302498Y-121000D01*
X301498D01*
X300998Y-120500D01*
X295000Y-130001D02*
Y-133000D01*
X296499D01*
X296999Y-132500D01*
Y-130501D01*
X296499Y-130001D01*
X295000D01*
X297999D02*
X298999D01*
X298499D01*
Y-133000D01*
X297999D01*
X298999D01*
X301998Y-130001D02*
X300998D01*
X300498Y-130501D01*
Y-132500D01*
X300998Y-133000D01*
X301998D01*
X302498Y-132500D01*
Y-130501D01*
X301998Y-130001D01*
X303497Y-130501D02*
X303997Y-130001D01*
X304997D01*
X305497Y-130501D01*
Y-131001D01*
X304997Y-131500D01*
X304497D01*
X304997D01*
X305497Y-132000D01*
Y-132500D01*
X304997Y-133000D01*
X303997D01*
X303497Y-132500D01*
X295000Y-124001D02*
Y-127000D01*
X296499D01*
X296999Y-126500D01*
Y-124501D01*
X296499Y-124001D01*
X295000D01*
X297999D02*
X298999D01*
X298499D01*
Y-127000D01*
X297999D01*
X298999D01*
X301998Y-124001D02*
X300998D01*
X300498Y-124501D01*
Y-126500D01*
X300998Y-127000D01*
X301998D01*
X302498Y-126500D01*
Y-124501D01*
X301998Y-124001D01*
X305497Y-127000D02*
X303497D01*
X305497Y-125001D01*
Y-124501D01*
X304997Y-124001D01*
X303997D01*
X303497Y-124501D01*
X155001Y-172000D02*
X157500D01*
X158000Y-171500D01*
Y-170501D01*
X157500Y-170001D01*
X155001D01*
Y-177000D02*
X158000D01*
Y-175501D01*
X157500Y-175001D01*
X155501D01*
X155001Y-175501D01*
Y-177000D01*
X31002Y-207001D02*
Y-209000D01*
X32002Y-210000D01*
X36000D01*
X37000Y-209000D01*
Y-207001D01*
X36000Y-206001D01*
X32002D01*
X31002Y-207001D01*
Y-204002D02*
X37000D01*
Y-200003D01*
X31002Y-194005D02*
Y-198004D01*
X37000D01*
Y-194005D01*
X34001Y-198004D02*
Y-196004D01*
X31002Y-192006D02*
X37000D01*
Y-189007D01*
X36000Y-188007D01*
X32002D01*
X31002Y-189007D01*
Y-192006D01*
X102002Y-150001D02*
X101002Y-151001D01*
Y-153000D01*
X102002Y-154000D01*
X103001D01*
X104001Y-153000D01*
Y-151001D01*
X105001Y-150001D01*
X106000D01*
X107000Y-151001D01*
Y-153000D01*
X106000Y-154000D01*
X101002Y-148002D02*
Y-144003D01*
Y-146003D01*
X107000D01*
Y-142004D02*
X101002D01*
X103001Y-140005D01*
X101002Y-138005D01*
X107000D01*
X102002Y-136006D02*
X101002Y-135006D01*
Y-133007D01*
X102002Y-132007D01*
X103001D01*
X104001Y-133007D01*
Y-134007D01*
Y-133007D01*
X105001Y-132007D01*
X106000D01*
X107000Y-133007D01*
Y-135006D01*
X106000Y-136006D01*
X107000Y-126009D02*
Y-130008D01*
X103001Y-126009D01*
X102002D01*
X101002Y-127009D01*
Y-129008D01*
X102002Y-130008D01*
X301000Y-184001D02*
X304999Y-188000D01*
X302999Y-186001D01*
X304999Y-184001D01*
X301000Y-188000D01*
X265001D02*
X269000Y-186001D01*
X265001Y-184001D01*
X238999Y-183002D02*
X237000D01*
X236000Y-184002D01*
Y-188000D01*
X237000Y-189000D01*
X238999D01*
X239999Y-188000D01*
Y-184002D01*
X238999Y-183002D01*
X208999Y-184000D02*
X205000Y-185999D01*
X208999Y-187999D01*
X-55000Y-228002D02*
Y-234000D01*
X-52001D01*
X-51001Y-233000D01*
Y-229002D01*
X-52001Y-228002D01*
X-55000D01*
X-49002D02*
Y-234000D01*
X-46003D01*
X-45003Y-233000D01*
Y-232001D01*
X-46003Y-231001D01*
X-49002D01*
X-46003D01*
X-45003Y-230001D01*
Y-229002D01*
X-46003Y-228002D01*
X-49002D01*
X-39005Y-229002D02*
X-40005Y-228002D01*
X-42004D01*
X-43004Y-229002D01*
Y-233000D01*
X-42004Y-234000D01*
X-40005D01*
X-39005Y-233000D01*
Y-231001D01*
X-41004D01*
X-19000Y-223000D02*
Y-220001D01*
X-17001Y-223000D01*
Y-220001D01*
X-16001Y-223000D02*
Y-220001D01*
X-14501D01*
X-14002Y-220501D01*
Y-221500D01*
X-14501Y-222000D01*
X-16001D01*
X-15001D02*
X-14002Y-223000D01*
X-11003Y-220501D02*
X-11502Y-220001D01*
X-12502D01*
X-13002Y-220501D01*
Y-221001D01*
X-12502Y-221500D01*
X-11502D01*
X-11003Y-222000D01*
Y-222500D01*
X-11502Y-223000D01*
X-12502D01*
X-13002Y-222500D01*
X-10003Y-220001D02*
X-8004D01*
X-9003D01*
Y-223000D01*
X-17001Y-214501D02*
X-17501Y-214001D01*
X-18500D01*
X-19000Y-214501D01*
Y-215001D01*
X-18500Y-215500D01*
X-17501D01*
X-17001Y-216000D01*
Y-216500D01*
X-17501Y-217000D01*
X-18500D01*
X-19000Y-216500D01*
X-16001Y-214001D02*
Y-217000D01*
X-15001Y-216000D01*
X-14002Y-217000D01*
Y-214001D01*
X-11502D02*
X-12502D01*
X-13002Y-214501D01*
Y-216500D01*
X-12502Y-217000D01*
X-11502D01*
X-11003Y-216500D01*
Y-214501D01*
X-11502Y-214001D01*
X-17001Y-208501D02*
X-17501Y-208001D01*
X-18500D01*
X-19000Y-208501D01*
Y-209001D01*
X-18500Y-209501D01*
X-17501D01*
X-17001Y-210000D01*
Y-210500D01*
X-17501Y-211000D01*
X-18500D01*
X-19000Y-210500D01*
X-16001Y-208001D02*
Y-211000D01*
X-15001Y-210000D01*
X-14002Y-211000D01*
Y-208001D01*
X-11003Y-208501D02*
X-11502Y-208001D01*
X-12502D01*
X-13002Y-208501D01*
Y-210500D01*
X-12502Y-211000D01*
X-11502D01*
X-11003Y-210500D01*
X-17001Y-201501D02*
X-17501Y-201001D01*
X-18500D01*
X-19000Y-201501D01*
Y-202001D01*
X-18500Y-202501D01*
X-17501D01*
X-17001Y-203000D01*
Y-203500D01*
X-17501Y-204000D01*
X-18500D01*
X-19000Y-203500D01*
X-16001Y-201001D02*
Y-204000D01*
X-15001Y-203000D01*
X-14002Y-204000D01*
Y-201001D01*
X-13002D02*
Y-204000D01*
X-11502D01*
X-11003Y-203500D01*
Y-201501D01*
X-11502Y-201001D01*
X-13002D01*
X16002Y-162001D02*
X15002Y-163001D01*
Y-165000D01*
X16002Y-166000D01*
X17001D01*
X18001Y-165000D01*
Y-163001D01*
X19001Y-162001D01*
X20000D01*
X21000Y-163001D01*
Y-165000D01*
X20000Y-166000D01*
X15002Y-156003D02*
Y-160002D01*
X21000D01*
Y-156003D01*
X18001Y-160002D02*
Y-158003D01*
X20000Y-150005D02*
X16002D01*
X15002Y-151005D01*
Y-153004D01*
X16002Y-154004D01*
X20000D01*
X21000Y-153004D01*
Y-151005D01*
X19001Y-152005D02*
X21000Y-150005D01*
Y-151005D02*
X20000Y-150005D01*
X21000Y-121000D02*
X15002D01*
X17001Y-119001D01*
X15002Y-117001D01*
X21000D01*
Y-115002D02*
Y-113003D01*
Y-114002D01*
X15002D01*
X16002Y-115002D01*
X21000Y-75000D02*
X15002D01*
X17001Y-73001D01*
X15002Y-71001D01*
X21000D01*
Y-65003D02*
Y-69002D01*
X17001Y-65003D01*
X16002D01*
X15002Y-66003D01*
Y-68002D01*
X16002Y-69002D01*
X177002Y-87001D02*
X176002Y-88001D01*
Y-90000D01*
X177002Y-91000D01*
X181000D01*
X182000Y-90000D01*
Y-88001D01*
X181000Y-87001D01*
X176002Y-85002D02*
X182000D01*
Y-81003D01*
X176002Y-76005D02*
Y-78004D01*
X177002Y-79004D01*
X181000D01*
X182000Y-78004D01*
Y-76005D01*
X181000Y-75005D01*
X177002D01*
X176002Y-76005D01*
X177002Y-69007D02*
X176002Y-70007D01*
Y-72006D01*
X177002Y-73006D01*
X178001D01*
X179001Y-72006D01*
Y-70007D01*
X180001Y-69007D01*
X181000D01*
X182000Y-70007D01*
Y-72006D01*
X181000Y-73006D01*
X176002Y-63009D02*
Y-67008D01*
X182000D01*
Y-63009D01*
X179001Y-67008D02*
Y-65008D01*
X176002Y-123001D02*
Y-125000D01*
X177002Y-126000D01*
X181000D01*
X182000Y-125000D01*
Y-123001D01*
X181000Y-122001D01*
X177002D01*
X176002Y-123001D01*
X182000Y-120002D02*
X176002D01*
Y-117003D01*
X177002Y-116003D01*
X179001D01*
X180001Y-117003D01*
Y-120002D01*
X176002Y-110005D02*
Y-114004D01*
X182000D01*
Y-110005D01*
X179001Y-114004D02*
Y-112004D01*
X182000Y-108006D02*
X176002D01*
X182000Y-104007D01*
X176002D01*
Y-168000D02*
X182000D01*
Y-164001D01*
X176002Y-158003D02*
Y-162002D01*
X182000D01*
Y-158003D01*
X179001Y-162002D02*
Y-160003D01*
X176002Y-156004D02*
X182000D01*
Y-153005D01*
X181000Y-152005D01*
X177002D01*
X176002Y-153005D01*
Y-156004D01*
X177002Y-146007D02*
X176002Y-147007D01*
Y-149006D01*
X177002Y-150006D01*
X178001D01*
X179001Y-149006D01*
Y-147007D01*
X180001Y-146007D01*
X181000D01*
X182000Y-147007D01*
Y-149006D01*
X181000Y-150006D01*
X176002Y-220001D02*
Y-222000D01*
X177002Y-223000D01*
X181000D01*
X182000Y-222000D01*
Y-220001D01*
X181000Y-219001D01*
X177002D01*
X176002Y-220001D01*
Y-217002D02*
X182000D01*
Y-213003D01*
X176002Y-207005D02*
Y-211004D01*
X182000D01*
Y-207005D01*
X179001Y-211004D02*
Y-209004D01*
X176002Y-205006D02*
X182000D01*
Y-202007D01*
X181000Y-201007D01*
X177002D01*
X176002Y-202007D01*
Y-205006D01*
D13*
X-27465Y-179929D02*
X-24905D01*
X-27465D02*
Y-146071D01*
X-24905D01*
X-13094Y-179929D02*
X-10535D01*
Y-146071D01*
X-13094D02*
X-10535D01*
X-27465Y-134929D02*
X-24905D01*
X-27465D02*
Y-101071D01*
X-24905D01*
X-13094Y-134929D02*
X-10535D01*
Y-101071D01*
X-13094D02*
X-10535D01*
X-27465Y-90055D02*
X-24905D01*
X-27465D02*
Y-56197D01*
X-24905D01*
X-13094Y-90055D02*
X-10535D01*
Y-56197D01*
X-13094D02*
X-10535D01*
D14*
X-31142Y-97091D02*
Y-88410D01*
Y-67779D02*
Y-59098D01*
X-64606Y-97091D02*
X-31142D01*
X-70118Y-91579D02*
X-64606Y-97091D01*
X-70118Y-91579D02*
Y-64610D01*
X-64606Y-59098D01*
X-31142D01*
Y-136902D02*
Y-128220D01*
Y-107591D02*
Y-98909D01*
X-64606Y-136902D02*
X-31142D01*
X-70118Y-131390D02*
X-64606Y-136902D01*
X-70118Y-131390D02*
Y-104421D01*
X-64606Y-98909D01*
X-31142D01*
Y-176902D02*
Y-168220D01*
Y-147591D02*
Y-138909D01*
X-64606Y-176902D02*
X-31142D01*
X-70118Y-171390D02*
X-64606Y-176902D01*
X-70118Y-171390D02*
Y-144421D01*
X-64606Y-138909D01*
X-31142D01*
M02*
